<svg width="65" height="64" viewBox="0 0 65 64" fill="none" xmlns="http://www.w3.org/2000/svg">
<path d="M32.1907 37.5554L56.3335 24.1427L32.1907 10.73L8.04785 24.1427L32.1907 37.5554Z" stroke="black" stroke-linecap="round"/>
<path d="M32.1907 37.5556L48.7152 28.376C50.8894 33.8969 51.5065 39.9087 50.4991 45.7561C43.695 46.4165 37.2801 49.2344 32.1907 53.7984C27.1021 49.2349 20.6882 46.4171 13.8851 45.7561C12.877 39.9087 13.4941 33.8967 15.669 28.376L32.1907 37.5556Z" stroke="black" stroke-linecap="round"/>
<path d="M32.1907 37.5554L56.3335 24.1427L32.1907 10.73L8.04785 24.1427L32.1907 37.5554ZM32.1907 37.5554L48.7151 28.3757C50.8894 33.8966 51.5064 39.9084 50.499 45.7559C43.6949 46.4163 37.28 49.2341 32.1907 53.7981C27.1021 49.2346 20.6882 46.4168 13.8851 45.7559C12.877 39.9084 13.494 33.8965 15.6689 28.3757L32.1907 37.5554ZM21.4605 53.6506V33.5316L32.1907 27.571" stroke="white" stroke-width="3" stroke-linecap="square" stroke-linejoin="round"/>
</svg>
