<svg width="26" height="26" viewBox="0 0 26 26" fill="none" xmlns="http://www.w3.org/2000/svg">
<path d="M6.92559 5.37249C8.362 4.22859 10.0922 3.51351 11.9171 3.30957V14.0833H22.6909C22.4869 15.9082 21.7718 17.6384 20.6279 19.0748C19.484 20.5113 17.9578 21.5955 16.2249 22.2027C14.4919 22.81 12.6227 22.9156 10.8324 22.5074C9.04214 22.0992 7.40348 21.1938 6.10505 19.8954C4.80663 18.597 3.90121 16.9583 3.49301 15.168C3.08482 13.3777 3.19042 11.5085 3.79768 9.77558C4.40494 8.04265 5.48917 6.5164 6.92559 5.37249Z" stroke="white" stroke-width="2" stroke-linecap="round" stroke-linejoin="round"/>
<path d="M16.25 9.75002H22.1953C21.709 8.37919 20.9229 7.13414 19.8944 6.10562C18.8659 5.0771 17.6208 4.29103 16.25 3.80469V9.75002Z" stroke="white" stroke-width="2" stroke-linecap="round" stroke-linejoin="round"/>
</svg>
