<svg width="26" height="26" viewBox="0 0 26 26" fill="none" xmlns="http://www.w3.org/2000/svg">
<path d="M9.75033 5.41667H7.58366C7.00902 5.41667 6.45792 5.64494 6.05159 6.05127C5.64527 6.4576 5.41699 7.0087 5.41699 7.58333V20.5833C5.41699 21.158 5.64527 21.7091 6.05159 22.1154C6.45792 22.5217 7.00902 22.75 7.58366 22.75H18.417C18.9916 22.75 19.5427 22.5217 19.9491 22.1154C20.3554 21.7091 20.5837 21.158 20.5837 20.5833V7.58333C20.5837 7.0087 20.3554 6.4576 19.9491 6.05127C19.5427 5.64494 18.9916 5.41667 18.417 5.41667H16.2503M9.75033 5.41667C9.75033 5.9913 9.9786 6.5424 10.3849 6.94873C10.7913 7.35506 11.3424 7.58333 11.917 7.58333H14.0837C14.6583 7.58333 15.2094 7.35506 15.6157 6.94873C16.0221 6.5424 16.2503 5.9913 16.2503 5.41667M9.75033 5.41667C9.75033 4.84203 9.9786 4.29093 10.3849 3.8846C10.7913 3.47827 11.3424 3.25 11.917 3.25H14.0837C14.6583 3.25 15.2094 3.47827 15.6157 3.8846C16.0221 4.29093 16.2503 4.84203 16.2503 5.41667M13.0003 13H16.2503M13.0003 17.3333H16.2503M9.75033 13H9.76116M9.75033 17.3333H9.76116" stroke="white" stroke-width="2" stroke-linecap="round" stroke-linejoin="round"/>
</svg>
