<svg width="21" height="15" viewBox="0 0 21 15" fill="none" xmlns="http://www.w3.org/2000/svg">
<path d="M20.7522 3.52681L20.7407 3.39867C20.6797 1.54611 19.3397 0.226054 17.4781 0.187975C15.1474 0.06286 12.7865 0 10.4613 0C8.13611 0 5.77523 0.063465 3.44034 0.18858C1.58235 0.226055 0.242341 1.54611 0.181294 3.40653L0.170419 3.52741C-0.0604705 6.02972 -0.0568475 8.56769 0.181899 11.0785C0.242946 12.931 1.58295 14.2511 3.44457 14.2892C5.77523 14.4143 8.13611 14.4771 10.4613 14.4771C12.7865 14.4771 15.1474 14.4137 17.4823 14.2885C19.3403 14.2511 20.6803 12.931 20.7413 11.0706C20.9795 8.56527 20.9831 6.0273 20.7522 3.52681ZM8.45403 10.2722V4.32706L13.7385 7.29961L8.45403 10.2722Z" fill="white"/>
</svg>
