<svg width="56" height="56" viewBox="0 0 56 56" fill="none" xmlns="http://www.w3.org/2000/svg">
<path d="M49 30.9282C42.3278 33.626 35.197 35.0086 28 34.9998C20.573 34.9998 13.4867 33.5532 7 30.9282M28 27.9998H28.0233M37.3333 13.9998V9.33317C37.3333 8.09549 36.8417 6.90851 35.9665 6.03334C35.0913 5.15817 33.9043 4.6665 32.6667 4.6665H23.3333C22.0957 4.6665 20.9087 5.15817 20.0335 6.03334C19.1583 6.90851 18.6667 8.09549 18.6667 9.33317V13.9998H37.3333ZM11.6667 46.6665H44.3333C45.571 46.6665 46.758 46.1748 47.6332 45.2997C48.5083 44.4245 49 43.2375 49 41.9998V18.6665C49 17.4288 48.5083 16.2418 47.6332 15.3667C46.758 14.4915 45.571 13.9998 44.3333 13.9998H11.6667C10.429 13.9998 9.242 14.4915 8.36683 15.3667C7.49167 16.2418 7 17.4288 7 18.6665V41.9998C7 43.2375 7.49167 44.4245 8.36683 45.2997C9.242 46.1748 10.429 46.6665 11.6667 46.6665Z" stroke="white" stroke-width="3" stroke-linecap="round" stroke-linejoin="round"/>
</svg>
