<svg width="26" height="26" viewBox="0 0 26 26" fill="none" xmlns="http://www.w3.org/2000/svg">
<path d="M17.333 4.3335V17.3335L12.9997 15.1668L8.66634 17.3335V4.3335H17.333ZM6.49967 21.6668H19.4997C20.0743 21.6668 20.6254 21.4386 21.0317 21.0322C21.4381 20.6259 21.6663 20.0748 21.6663 19.5002V6.50016C21.6663 5.92553 21.4381 5.37443 21.0317 4.9681C20.6254 4.56177 20.0743 4.3335 19.4997 4.3335H6.49967C5.92504 4.3335 5.37394 4.56177 4.96761 4.9681C4.56128 5.37443 4.33301 5.92553 4.33301 6.50016V19.5002C4.33301 20.0748 4.56128 20.6259 4.96761 21.0322C5.37394 21.4386 5.92504 21.6668 6.49967 21.6668Z" stroke="white" stroke-width="2" stroke-linecap="round" stroke-linejoin="round"/>
</svg>
