<svg width="21" height="20" viewBox="0 0 21 20" fill="none" xmlns="http://www.w3.org/2000/svg">
<path d="M19.0552 4.48501C18.1171 2.99208 16.8055 1.92407 15.2376 1.15766C13.6166 0.365264 11.8939 0.00381925 9.69143 0.000192712C8.43242 -0.00887363 6.83554 0.301799 5.31481 0.966664C3.78864 1.63334 2.46919 2.58108 1.46706 3.92833C0.151832 5.69687 -0.31599 7.66125 0.214089 9.81601C0.64746 11.5773 1.68042 12.9554 3.09537 14.0572C4.60522 15.2322 6.33387 15.8899 8.21302 16.1866C8.45902 16.2253 8.7032 16.3009 8.93712 16.3885C9.23026 16.4985 9.39527 16.7246 9.37714 17.0461C9.35719 17.3906 9.31911 17.7339 9.28164 18.0773C9.25686 18.3063 9.20306 18.5336 9.19339 18.7627C9.18009 19.0733 9.30581 19.19 9.61649 19.1471C9.80023 19.1217 9.9876 19.0637 10.1526 18.9797C10.5824 18.7609 11.0109 18.536 11.4225 18.2852C13.1542 17.2287 14.8133 16.0712 16.3588 14.7541C17.2165 14.0234 18.0083 13.231 18.6828 12.3262C19.5508 11.1615 20.0863 9.8686 20.131 8.40227C20.1745 6.98913 19.8071 5.68297 19.0545 4.48561L19.0552 4.48501ZM6.49283 10.5105C6.48437 10.6513 6.41123 10.7251 6.26859 10.7353C6.2015 10.7402 6.13381 10.7408 6.08303 10.7408C5.69379 10.7408 5.30454 10.7408 4.91529 10.7408C4.52604 10.7408 4.12168 10.7408 3.72518 10.7408C3.65144 10.7408 3.57952 10.7402 3.51001 10.7311C3.39819 10.7172 3.33412 10.6525 3.31901 10.5377C3.30813 10.4549 3.30813 10.3685 3.30813 10.2917C3.30813 9.08345 3.30813 7.87521 3.30813 6.66758V6.42581C3.30813 6.38531 3.30813 6.343 3.31054 6.30251C3.32807 6.0698 3.37401 6.02387 3.60006 6.01541C3.68529 6.01238 3.76991 6.01057 3.8509 6.01057C3.93189 6.01057 4.01893 6.01238 4.09992 6.01601C4.3157 6.02568 4.35861 6.06739 4.37191 6.28135C4.37554 6.34059 4.37493 6.40224 4.37433 6.46147C4.37433 6.48444 4.37433 6.50741 4.37433 6.53037C4.37433 7.26596 4.37433 9.20253 4.37433 9.20253V9.65826L4.40999 9.66007C4.46439 9.6631 4.51335 9.66551 4.55868 9.66854C4.64692 9.67397 4.72308 9.67881 4.79864 9.67881C4.9165 9.67881 5.03436 9.67941 5.15283 9.67941C5.23442 9.67941 5.5596 9.67941 5.6412 9.67941C5.82011 9.67941 5.95792 9.67942 6.08787 9.68062C6.462 9.68304 6.49646 9.7187 6.50008 10.1043C6.50129 10.227 6.5019 10.3703 6.49344 10.5099L6.49283 10.5105ZM8.20153 10.4591C8.1834 10.6767 8.13505 10.7257 7.93015 10.7372C7.84372 10.742 7.75728 10.7444 7.67206 10.7444C7.58019 10.7444 7.48892 10.7414 7.40007 10.7359C7.20726 10.7245 7.15467 10.6713 7.14561 10.4797C7.13775 10.3135 7.13896 10.143 7.14017 9.9786C7.14017 9.91574 7.14077 9.85288 7.14077 9.78942C7.14077 9.38264 7.14077 8.97526 7.14077 8.56788V8.34304C7.14077 8.14116 7.14077 7.93989 7.14077 7.73801C7.14077 7.28711 7.14017 6.8211 7.14198 6.36234C7.14379 6.04502 7.16918 6.01903 7.4865 6.01359H7.51612C7.58442 6.01178 7.65453 6.01057 7.72404 6.01057C7.81289 6.01057 7.88602 6.01238 7.95553 6.01661C8.13082 6.02749 8.17615 6.07162 8.19851 6.25294C8.20456 6.30251 8.20455 6.3557 8.20395 6.40647V6.43669C8.20395 7.72592 8.20395 9.01515 8.20395 10.3038C8.20395 10.3153 8.20395 10.3261 8.20395 10.3376C8.20395 10.3793 8.20395 10.4186 8.20093 10.4579L8.20153 10.4591ZM13.0581 6.40163C13.0581 6.41674 13.0581 6.43185 13.0581 6.44636C13.0581 7.59537 13.0581 8.74437 13.0581 9.89338V10.3068C13.0581 10.331 13.0581 10.3546 13.0581 10.3787C13.0502 10.7021 13.0115 10.739 12.6845 10.7402C12.6223 10.7402 12.5667 10.7408 12.5165 10.7414C12.4694 10.7414 12.4277 10.742 12.3896 10.742C12.0874 10.742 12.0765 10.7269 11.8933 10.4694C11.8559 10.4168 11.8136 10.3576 11.7598 10.2863C11.4521 9.87525 11.1433 9.45517 10.8441 9.0484C10.67 8.81146 10.4953 8.57393 10.3206 8.3376C10.2753 8.27655 10.2263 8.21611 10.1695 8.1466C10.1399 8.11033 10.1073 8.07044 10.071 8.02571L10.0124 7.95258L10.0039 8.04627C10.0003 8.08737 9.99667 8.12363 9.99304 8.15627C9.98639 8.21974 9.98095 8.2693 9.98035 8.32067C9.97974 8.62832 9.97974 8.93537 9.98035 9.24302C9.98035 9.61111 9.98035 9.9913 9.97914 10.366C9.97793 10.7166 9.95617 10.7378 9.59654 10.742H9.54577C9.49681 10.7432 9.44785 10.7438 9.3989 10.7438C9.3306 10.7438 9.27438 10.7426 9.22119 10.7402C8.98305 10.7281 8.93228 10.6755 8.91777 10.4277C8.91536 10.389 8.91596 10.3485 8.91596 10.3098C8.91596 10.2977 8.91596 10.285 8.91596 10.273V9.76706C8.91596 8.67728 8.91596 7.58751 8.91596 6.49774C8.91596 6.40224 8.91657 6.30915 8.92684 6.2197C8.94135 6.08975 9.01267 6.02326 9.13839 6.02085C9.22543 6.01964 9.32032 6.01843 9.43637 6.01843C9.50286 6.01843 9.56995 6.01843 9.63643 6.01843H9.76699C9.90661 6.01903 9.97914 6.11816 10.0553 6.22272C10.0625 6.23239 10.0692 6.24206 10.0765 6.25173L10.401 6.68994C10.8296 7.26898 11.2581 7.84741 11.6872 8.42645C11.7253 8.47782 11.7652 8.5298 11.8033 8.57997C11.8214 8.60354 11.8389 8.62712 11.8571 8.65008L11.8704 8.66701L11.9979 8.6519V7.87582C11.9979 7.42311 11.9979 6.96979 11.9979 6.51708V6.50197C11.9979 6.41493 11.9979 6.32487 12.0058 6.23723C12.0185 6.09096 12.0922 6.01964 12.2306 6.01843C12.2808 6.01843 12.3303 6.01722 12.3805 6.01661C12.4494 6.01541 12.5207 6.0148 12.5902 6.0148C12.6803 6.0148 12.7553 6.01661 12.826 6.02024C13.0019 6.02991 13.0381 6.06799 13.0544 6.26201C13.0581 6.30795 13.0581 6.3563 13.0575 6.40284L13.0581 6.40163ZM16.959 10.4561C16.9463 10.6815 16.8992 10.7263 16.6634 10.739C16.6211 10.7414 16.5764 10.7426 16.5184 10.7426C16.4906 10.7426 16.4628 10.7426 16.435 10.7426C16.4066 10.7426 16.3788 10.7426 16.351 10.7426C16.1557 10.7426 15.9611 10.7426 15.7659 10.7426C15.5513 10.7426 15.3361 10.7426 15.1216 10.7426C14.7547 10.7426 14.4555 10.7426 14.1793 10.7414C13.8269 10.7402 13.8057 10.7184 13.8051 10.3588C13.8039 9.27808 13.8039 8.17924 13.8045 7.11606V6.39377C13.8045 6.32668 13.8069 6.26624 13.8118 6.20822C13.8215 6.08914 13.8795 6.02991 13.9955 6.02145C14.0542 6.01722 14.1152 6.01541 14.1817 6.01541H14.6731C14.9783 6.01541 15.283 6.0148 15.5882 6.0148C15.917 6.0148 16.2452 6.0148 16.574 6.01601C16.9451 6.01661 16.9596 6.03172 16.9632 6.41614V6.47295C16.9651 6.56724 16.9663 6.66516 16.9614 6.76005C16.9499 7.00847 16.8986 7.06045 16.655 7.07073C16.4906 7.07738 16.3292 7.07859 16.1926 7.07859C16.134 7.07859 16.0753 7.07859 16.0161 7.07859C15.9575 7.07859 15.8982 7.07859 15.8396 7.07859C15.7864 7.07859 15.7332 7.07858 15.6801 7.07919C15.5096 7.081 15.3392 7.08342 15.159 7.08705C15.0762 7.08826 14.9916 7.09007 14.9046 7.09128H14.8671V7.84922H15.2962C15.422 7.84922 15.5477 7.84922 15.674 7.84922C15.7997 7.84922 15.9254 7.84922 16.0512 7.84922C16.2845 7.84922 16.4743 7.85043 16.6471 7.85225C16.9167 7.85587 16.9518 7.89153 16.9602 8.17199C16.9645 8.31221 16.9645 8.44942 16.9602 8.57876C16.9506 8.86042 16.9022 8.90696 16.6169 8.91119C16.415 8.91422 16.2168 8.91422 16.0663 8.91422C15.9804 8.91422 15.8946 8.91422 15.8088 8.91422C15.723 8.91422 15.6371 8.91422 15.5513 8.91422C15.4558 8.91422 15.3597 8.91422 15.2642 8.91482C15.1875 8.91482 15.1101 8.92087 15.0279 8.92691C14.988 8.92993 14.9457 8.93295 14.9016 8.93537L14.8659 8.93718V9.68425H15.3688C15.4842 9.68425 15.5997 9.68425 15.7151 9.68425C15.8306 9.68425 15.946 9.68425 16.0614 9.68425C16.2815 9.68425 16.4592 9.68546 16.6217 9.68788C16.904 9.69211 16.9512 9.73925 16.9602 10.0245C16.9638 10.1454 16.9675 10.305 16.9584 10.4615L16.959 10.4561Z" fill="white"/>
</svg>
